<?xml version="1.0" standalone="no"?>
<!DOCTYPE svg PUBLIC "-//W3C//DTD SVG 20010904//EN"
 "http://www.w3.org/TR/2001/REC-SVG-20010904/DTD/svg10.dtd">
<svg version="1.0" xmlns="http://www.w3.org/2000/svg"
 width="2006.000000pt" height="1324.000000pt" viewBox="0 0 2006.000000 1324.000000"
 preserveAspectRatio="xMidYMid meet">
<metadata>
Created by potrace 1.10, written by Peter Selinger 2001-2011
</metadata>
<g transform="translate(0.000000,1324.000000) scale(0.100000,-0.100000)"
fill="#444444" stroke="none">
<path d="M0 11755 l0 -1485 2250 0 2250 0 0 1485 0 1485 -2250 0 -2250 0 0
-1485z m2513 991 c477 -143 777 -587 727 -1076 -26 -251 -119 -450 -289 -621
-131 -131 -286 -219 -465 -264 -105 -27 -230 -34 -242 -13 -5 8 8 9 52 4 40
-4 54 -3 44 4 -12 7 -8 10 15 10 49 0 190 38 267 70 153 65 320 201 410 332
53 79 121 218 142 290 26 93 17 89 -14 -5 -82 -244 -221 -421 -431 -547 -77
-47 -136 -71 -78 -32 127 83 239 173 280 226 32 39 24 37 -31 -9 -13 -11 -5 3
18 31 102 126 158 227 198 361 22 75 27 112 31 253 4 153 3 172 -21 264 -84
325 -329 577 -648 666 -122 34 -258 44 -369 26 -453 -73 -759 -408 -808 -881
-5 -47 -9 -66 -11 -45 l-3 35 -7 -35 c-16 -75 -10 65 6 156 9 49 17 106 19
128 4 59 104 248 181 345 139 173 338 295 565 346 45 10 109 14 219 11 132 -3
168 -7 243 -30z m-842 -801 c28 -36 52 -65 54 -65 2 0 25 29 51 65 43 59 52
66 79 63 l30 -3 0 -165 0 -165 -30 0 -30 0 -5 105 -5 105 -38 -53 c-21 -28
-45 -52 -52 -52 -10 0 -128 146 -159 198 -11 18 2 32 29 32 18 0 38 -17 76
-65z m512 -98 c37 -87 65 -162 62 -168 -7 -11 -322 -12 -329 -1 -3 4 1 19 7
33 12 23 17 24 121 27 80 2 107 6 103 15 -40 101 -62 146 -68 140 -4 -5 -18
-35 -32 -68 -21 -50 -30 -61 -52 -63 -45 -6 -47 10 -11 94 19 43 41 96 50 117
14 35 19 38 48 35 32 -3 34 -6 101 -161z m233 136 c5 -20 3 -30 -11 -37 -58
-35 -75 -57 -75 -103 0 -56 10 -75 55 -102 27 -16 36 -27 33 -44 -2 -18 -9
-22 -35 -21 -92 4 -157 150 -108 244 22 43 76 81 127 89 4 0 11 -11 14 -26z
m78 13 c40 -17 86 -64 86 -88 0 -27 -47 -23 -82 7 -16 14 -36 25 -44 25 -14 0
-20 50 -7 63 8 9 8 9 47 -7z m377 -151 c37 -88 65 -163 63 -167 -7 -11 -322
-10 -329 1 -3 5 0 21 6 35 12 26 14 26 120 26 l108 0 -30 72 c-16 40 -33 76
-38 81 -4 4 -20 -24 -35 -63 -27 -68 -29 -70 -62 -70 -22 0 -34 5 -34 13 0 13
68 176 91 219 7 14 19 18 41 16 31 -3 34 -8 99 -163z m-287 19 c39 -15 -4
-132 -63 -171 -19 -13 -45 -23 -57 -23 -20 0 -24 5 -24 30 0 20 6 33 18 37 20
7 62 43 62 54 0 4 -24 9 -52 11 -47 3 -53 6 -56 27 -2 13 2 28 10 32 15 10
139 12 162 3z m-959 -134 c0 -54 0 -55 -30 -55 -28 0 -30 3 -33 44 -4 60 2 73
35 69 27 -3 28 -5 28 -58z m95 -147 c1 -17 1 -17 14 0 19 24 26 21 26 -11 0
-25 -4 -28 -30 -28 -26 0 -30 3 -30 28 0 30 20 40 20 11z m94 -5 c8 -33 8 -33
-19 -33 -14 0 -25 1 -25 2 0 1 4 13 10 27 12 32 26 33 34 4z m57 9 c-6 -6 -7
-16 -1 -27 8 -14 5 -17 -15 -17 -21 0 -25 4 -25 27 0 23 4 28 26 28 17 0 22
-4 15 -11z m49 3 c-8 -5 -10 -10 -5 -10 6 0 11 -9 11 -20 0 -13 -7 -20 -18
-20 -13 0 -18 8 -18 30 0 24 4 30 23 30 18 0 19 -2 7 -10z m94 -12 c8 -33 8
-33 -19 -34 -29 -2 -28 -3 -15 30 12 32 26 33 34 4z m66 12 c0 -5 -5 -9 -11
-7 -6 1 -14 -4 -16 -10 -3 -7 2 -13 11 -13 9 0 16 -4 16 -10 0 -15 -26 -12
-39 4 -6 7 -9 21 -5 30 7 17 44 23 44 6z m103 -10 c6 -23 -16 -45 -38 -36 -15
5 -21 37 -8 49 13 14 41 6 46 -13z m57 -11 c0 -26 -3 -29 -14 -20 -11 9 -15 9
-19 -1 -3 -7 -6 2 -6 20 -1 26 3 32 19 32 16 0 20 -7 20 -31z m40 21 c-10 -6
-11 -10 -2 -10 6 0 12 -9 12 -20 0 -13 -7 -20 -20 -20 -16 0 -20 7 -20 30 0
24 4 30 23 30 18 0 19 -2 7 -10z m68 -18 c9 -27 8 -29 -18 -29 -26 0 -27 2
-18 29 6 15 14 28 18 28 4 0 12 -13 18 -28z m54 3 c-6 -34 -22 -42 -22 -11 0
13 -6 27 -12 29 -7 3 -1 6 13 6 23 1 26 -2 21 -24z m48 15 c-10 -6 -11 -10 -2
-10 6 0 12 -9 12 -20 0 -13 -7 -20 -20 -20 -16 0 -20 7 -20 30 0 24 4 30 23
30 18 0 19 -2 7 -10z m98 -18 c9 -27 8 -29 -18 -29 -26 0 -27 2 -18 29 6 15
14 28 18 28 4 0 12 -13 18 -28z m67 8 c12 -37 -20 -55 -45 -25 -10 12 -10 18
0 30 17 21 37 19 45 -5z m59 -2 c8 -33 8 -33 -19 -34 -29 -2 -28 -3 -15 30 12
32 26 33 34 4z m56 12 c-12 -8 -13 -13 -2 -30 11 -18 10 -20 -13 -20 -23 0
-24 2 -13 20 11 17 10 22 -2 30 -11 7 -8 10 15 10 23 0 26 -3 15 -10z m41 -2
c0 -10 2 -10 6 0 9 22 23 12 23 -17 0 -25 -4 -29 -25 -27 -20 1 -25 6 -25 29
0 26 19 40 21 15z m-1336 -375 c21 -32 74 -96 119 -143 l81 -85 -74 70 c-72
69 -186 215 -168 215 2 0 21 -26 42 -57z m1435 -117 c0 -2 -8 -10 -17 -17 -16
-13 -17 -12 -4 4 13 16 21 21 21 13z m-1209 -123 c13 -16 12 -17 -3 -4 -17 13
-22 21 -14 21 2 0 10 -8 17 -17z m276 -150 c-4 -3 -10 -3 -14 0 -3 4 0 7 7 7
7 0 10 -3 7 -7z m30 -10 c-4 -3 -10 -3 -14 0 -3 4 0 7 7 7 7 0 10 -3 7 -7z"/>
<path d="M1300 11960 c0 -7 3 -10 7 -7 3 4 3 10 0 14 -4 3 -7 0 -7 -7z"/>
<path d="M1292 11890 c0 -14 2 -19 5 -12 2 6 2 18 0 25 -3 6 -5 1 -5 -13z"/>
<path d="M3213 11780 c0 -30 2 -43 4 -27 2 15 2 39 0 55 -2 15 -4 2 -4 -28z"/>
<path d="M3202 11645 c0 -16 2 -22 5 -12 2 9 2 23 0 30 -3 6 -5 -1 -5 -18z"/>
<path d="M3192 11590 c0 -14 2 -19 5 -12 2 6 2 18 0 25 -3 6 -5 1 -5 -13z"/>
<path d="M2145 11581 c-3 -5 -1 -12 5 -16 5 -3 10 1 10 9 0 18 -6 21 -15 7z"/>
<path d="M2586 11581 c-4 -7 -5 -15 -2 -18 9 -9 19 4 14 18 -4 11 -6 11 -12 0z"/>
</g>
</svg>
