<?xml version="1.0" standalone="no"?>
<!DOCTYPE svg PUBLIC "-//W3C//DTD SVG 20010904//EN"
 "http://www.w3.org/TR/2001/REC-SVG-20010904/DTD/svg10.dtd">
<svg version="1.0" xmlns="http://www.w3.org/2000/svg"
 width="2006.000000pt" height="1324.000000pt" viewBox="0 0 2006.000000 1324.000000"
 preserveAspectRatio="xMidYMid meet">
<metadata>
Created by potrace 1.10, written by Peter Selinger 2001-2011
</metadata>
<g transform="translate(0.000000,1324.000000) scale(0.100000,-0.100000)"
fill="#444444" stroke="none">
<path d="M4470 13213 c-1 -16 -2 -673 -4 -1460 -1 -788 -5 -1435 -8 -1438 -3
-3 -1006 -7 -2229 -8 -2109 -2 -2224 -3 -2227 -19 -3 -17 109 -18 2247 -18
l2251 0 0 1485 c0 1313 -2 1485 -15 1485 -10 0 -15 -10 -15 -27z"/>
<path d="M2110 12810 c-95 -14 -230 -55 -308 -94 -179 -91 -341 -244 -438
-413 -55 -97 -81 -164 -100 -262 -15 -82 -29 -302 -15 -241 l8 35 2 -46 c1
-32 6 -49 16 -53 12 -4 15 3 14 37 l-2 42 -8 -35 c-5 -23 -7 0 -4 65 3 55 11
125 19 155 9 30 13 56 11 59 -3 2 -5 -2 -5 -9 0 -7 -2 -11 -5 -8 -8 8 29 106
73 193 127 253 357 442 630 517 63 18 106 22 242 22 143 1 176 -2 250 -22 172
-47 315 -129 447 -255 183 -176 280 -379 301 -634 27 -318 -73 -599 -287 -814
-130 -129 -287 -219 -464 -264 -112 -28 -247 -43 -247 -26 0 6 -16 11 -37 11
l-38 -1 40 -17 c54 -23 207 -21 298 2 270 70 520 267 647 509 63 119 84 180
111 321 32 170 15 376 -46 555 -82 242 -308 481 -557 589 -166 72 -385 105
-548 82z"/>
<path d="M2065 12710 c-434 -92 -732 -435 -761 -878 -9 -133 9 -111 31 37 50
344 229 594 527 738 237 114 528 110 768 -12 174 -88 295 -210 394 -396 128
-241 128 -573 0 -831 -35 -70 -149 -231 -204 -286 -23 -23 -27 -31 -14 -27 18
6 18 5 -1 -10 -186 -149 -302 -206 -455 -220 -166 -16 -198 -25 -83 -25 39 0
86 -2 104 -5 28 -4 30 -3 14 5 -15 7 -9 8 24 4 27 -4 41 -3 38 3 -4 6 4 8 20
5 16 -3 24 -1 20 5 -4 6 4 8 20 5 18 -3 24 -1 19 6 -4 8 -2 10 7 6 18 -7 125
36 200 81 32 19 64 32 70 28 7 -3 9 -3 5 2 -4 4 -3 14 3 22 14 16 33 18 23 1
-5 -7 -3 -8 5 -4 7 5 10 11 7 14 -7 7 23 42 36 42 5 0 6 -6 2 -12 -4 -7 19 12
50 42 54 52 67 68 46 55 -16 -10 -11 11 6 26 25 21 88 117 126 194 44 87 73
176 93 284 16 87 20 277 7 298 -5 7 -8 -47 -8 -120 -1 -101 -6 -153 -22 -220
-72 -291 -238 -519 -475 -651 -63 -36 -142 -68 -103 -43 178 116 240 161 292
213 90 90 100 120 13 41 -40 -37 -77 -67 -82 -67 -4 0 31 39 80 88 133 132
209 290 238 499 76 534 -281 1007 -810 1072 -120 15 -163 13 -270 -9z m905
-1613 c0 -2 -19 -21 -42 -42 l-43 -40 40 43 c36 39 45 47 45 39z"/>
<path d="M2810 12578 c42 -42 121 -109 95 -79 -16 18 -48 47 -70 64 -22 17
-33 24 -25 15z"/>
<path d="M3079 12260 c22 -41 53 -115 70 -165 17 -49 31 -83 31 -74 0 43 -84
243 -124 294 -9 11 2 -14 23 -55z"/>
<path d="M1550 12020 c-31 -31 -26 -46 42 -136 21 -28 38 -54 38 -57 0 -4 -15
-7 -33 -7 -49 0 -67 -25 -67 -93 0 -46 4 -58 22 -71 30 -21 71 -20 91 2 10 11
17 38 18 70 2 52 2 52 25 37 27 -17 60 -20 69 -5 13 21 23 8 28 -36 3 -27 13
-54 27 -69 26 -28 20 -32 -50 -30 -64 2 -90 -14 -90 -55 0 -51 23 -60 150 -55
63 3 149 5 191 4 45 0 80 4 84 10 4 8 13 8 28 0 24 -14 326 -19 334 -6 3 4 25
5 50 1 24 -3 99 -7 165 -8 109 -1 123 0 140 18 21 23 22 39 7 68 -14 26 -9 30
53 35 59 4 103 38 91 71 -36 102 -129 305 -146 317 -52 36 -106 9 -141 -70
-31 -72 -42 -89 -55 -81 -6 4 -11 19 -11 33 0 35 -43 89 -89 113 -47 24 -156
22 -195 -3 -41 -27 -85 -80 -92 -109 -3 -16 -10 -28 -15 -28 -5 0 -23 28 -40
63 -41 82 -56 97 -94 97 -43 0 -69 -27 -111 -120 -20 -44 -41 -77 -45 -74 -5
3 -9 38 -9 78 0 63 -3 75 -23 94 -38 35 -74 29 -123 -23 -23 -25 -46 -45 -50
-45 -5 0 -27 20 -50 45 -47 51 -89 60 -124 25z m125 -82 l50 -67 49 70 c45 63
53 70 81 67 l30 -3 0 -165 0 -165 -32 -3 -33 -3 0 112 0 113 -41 -55 c-22 -30
-46 -54 -53 -54 -11 0 -128 142 -160 193 -12 19 4 33 32 30 20 -2 40 -21 77
-70z m507 -92 c37 -87 65 -163 62 -167 -6 -10 -317 -12 -327 -3 -3 4 1 20 9
36 l15 29 105 -3 c57 -2 104 0 104 3 0 3 -15 43 -34 90 -33 82 -35 83 -45 56
-45 -117 -52 -127 -87 -127 -19 0 -34 4 -34 8 0 5 18 51 41 103 23 52 45 104
50 117 7 19 15 23 41 20 32 -3 34 -7 100 -162z m228 130 c0 -28 -5 -36 -29
-46 -76 -31 -73 -161 5 -190 31 -12 36 -70 5 -70 -27 0 -82 40 -109 80 -20 29
-23 45 -20 95 5 74 33 119 92 146 55 25 56 24 56 -15z m81 24 c18 0 89 -73 89
-91 0 -28 -46 -24 -82 6 -16 14 -36 25 -44 25 -9 0 -14 10 -14 28 0 33 8 45
28 37 7 -3 18 -5 23 -5z m379 -155 c37 -88 66 -163 63 -167 -6 -11 -321 -10
-328 1 -3 5 0 21 7 36 l12 27 108 -4 c59 -2 108 0 108 3 0 7 -65 158 -71 164
-3 2 -18 -29 -33 -70 -28 -73 -30 -75 -62 -75 -19 0 -34 5 -34 11 0 10 72 185
92 222 6 13 18 17 40 15 29 -3 33 -10 98 -163z m-467 32 c-12 -12 -23 -33 -26
-47 -4 -21 -4 -20 -6 7 -1 21 6 39 21 53 28 26 37 16 11 -13z m197 -46 c0 -68
-79 -161 -136 -161 -20 0 -24 5 -24 31 0 24 6 32 29 40 16 6 37 21 45 34 l16
24 -58 3 c-51 3 -57 5 -60 27 -2 13 1 26 6 30 5 3 49 5 96 3 l86 -3 0 -28z
m-975 -101 c0 -54 0 -55 -30 -55 -28 0 -30 3 -33 44 -4 60 2 73 35 69 27 -3
28 -5 28 -58z m701 -74 c32 -22 33 -24 14 -29 -23 -6 -90 2 -90 11 0 6 31 42
37 42 2 0 20 -11 39 -24z m296 -22 c11 -6 1 -9 -35 -8 -29 0 -62 -4 -74 -9
-12 -5 -30 -6 -40 -3 -14 6 -7 13 37 35 53 27 56 28 75 11 11 -9 28 -21 37
-26z m-651 -17 c-5 -5 -18 -7 -28 -3 -14 6 -15 9 -4 16 19 11 46 1 32 -13z
m154 3 c-3 -5 -13 -10 -21 -10 -8 0 -14 5 -14 10 0 6 9 10 21 10 11 0 17 -4
14 -10z m-405 -37 c1 -17 1 -17 14 0 19 25 26 21 26 -13 0 -23 -4 -30 -20 -30
-11 0 -20 6 -20 13 0 9 -3 8 -9 -2 -6 -9 -10 -4 -13 18 -3 21 0 31 9 31 7 0
13 -8 13 -17z m94 -5 c8 -33 8 -33 -19 -34 -29 -2 -28 -3 -15 30 12 32 26 33
34 4z m57 9 c-6 -6 -7 -16 -1 -27 8 -14 5 -17 -15 -17 -21 0 -25 4 -25 27 0
23 4 28 26 28 17 0 22 -4 15 -11z m49 3 c-10 -6 -11 -10 -2 -10 6 0 12 -9 12
-20 0 -13 -7 -20 -20 -20 -16 0 -20 7 -20 30 0 24 4 30 23 30 18 0 19 -2 7
-10z m96 -18 c10 -27 10 -29 -17 -29 -16 0 -29 2 -29 3 0 12 21 54 28 54 4 0
12 -13 18 -28z m69 18 c-3 -5 -13 -10 -21 -10 -23 0 -16 -18 9 -23 20 -3 20
-4 4 -12 -23 -10 -50 15 -41 38 3 10 17 17 31 17 13 0 21 -4 18 -10z m97 -7
c7 -27 -2 -43 -23 -43 -22 0 -34 22 -25 45 8 21 43 19 48 -2z m58 -14 c0 -26
-3 -29 -14 -20 -11 9 -15 9 -19 -1 -3 -7 -6 2 -6 20 -1 26 3 32 19 32 16 0 20
-7 20 -31z m45 21 c-11 -5 -15 -9 -8 -9 6 -1 13 -9 16 -18 3 -15 6 -13 17 10
17 34 26 34 38 -1 l9 -28 -53 -2 c-54 -2 -54 -2 -54 28 0 26 3 30 28 29 24 0
25 -1 7 -9z m117 -20 c-5 -36 -22 -40 -22 -6 0 13 -6 27 -12 29 -7 3 -1 6 13
6 23 1 25 -2 21 -29z m48 20 c-10 -6 -11 -10 -2 -10 6 0 12 -9 12 -20 0 -13
-7 -20 -20 -20 -16 0 -20 7 -20 30 0 24 4 30 23 30 18 0 19 -2 7 -10z m98 -18
c9 -27 8 -29 -19 -29 -33 0 -32 -1 -17 32 15 32 24 32 36 -3z m70 3 c2 -31
-23 -44 -44 -23 -19 19 -7 48 20 48 16 0 22 -7 24 -25z m56 3 c8 -33 8 -33
-19 -34 -29 -2 -28 -3 -15 30 12 32 26 33 34 4z m56 12 c-12 -8 -13 -13 -2
-30 11 -18 10 -20 -14 -20 -22 0 -25 2 -14 15 10 12 10 18 0 30 -11 13 -8 15
16 15 22 0 26 -3 14 -10z m41 -2 c0 -10 2 -10 6 0 9 23 23 12 23 -18 0 -32
-17 -40 -27 -13 -6 15 -7 15 -14 -3 -6 -15 -8 -12 -8 14 -1 29 18 48 20 20z"/>
<path d="M3197 11956 c-4 -10 -5 -21 -2 -24 9 -9 17 6 13 25 -3 17 -4 17 -11
-1z"/>
<path d="M1397 11279 c105 -188 304 -359 513 -438 100 -38 133 -46 128 -29 -3
7 -23 16 -45 20 -46 7 -187 64 -206 82 -7 6 -45 33 -85 61 -72 48 -196 169
-230 223 -28 44 -93 132 -99 132 -2 0 8 -23 24 -51z"/>
<path d="M1365 11280 c20 -67 161 -238 255 -308 40 -29 132 -83 136 -80 2 2
-27 24 -64 48 -90 59 -210 180 -272 276 -60 92 -65 98 -55 64z"/>
<path d="M1740 10965 c0 -10 137 -79 200 -100 81 -28 109 -28 33 -1 -70 25
-96 38 -119 58 -18 16 -114 52 -114 43z"/>
<path d="M1870 10835 c0 -9 89 -45 112 -44 13 0 -4 10 -42 24 -73 28 -70 27
-70 20z"/>
<path d="M2207 10783 c18 -2 50 -2 70 0 21 2 7 4 -32 4 -38 0 -55 -2 -38 -4z"/>
</g>
</svg>
